<?xml version="1.0" encoding="UTF-8"?>
<svg xmlns="http://www.w3.org/2000/svg" xmlns:xlink="http://www.w3.org/1999/xlink" width="150px" height="150px" viewBox="0 0 150 150" version="1.1">
<g id="surface1">
<path style=" stroke:none;fill-rule:nonzero;fill:rgb(0%,0%,0%);fill-opacity:1;" d="M 56.160156 34.050781 C 48.660156 35.761719 42.480469 40.679688 39.269531 47.488281 C 37.050781 52.289062 36.449219 58.769531 37.769531 63.75 C 40.019531 72.121094 46.5 78.691406 54.777344 81.027344 C 57.660156 81.871094 63.238281 81.988281 66.300781 81.332031 C 75.179688 79.378906 82.320312 72.511719 84.628906 63.722656 C 85.378906 60.871094 85.527344 55.679688 84.929688 52.949219 C 83.910156 48.269531 81.332031 43.558594 78.121094 40.472656 C 75.089844 37.558594 72.390625 35.972656 67.980469 34.472656 C 65.550781 33.628906 58.949219 33.390625 56.160156 34.050781 Z M 66 35.789062 C 72.449219 37.109375 78.390625 41.761719 81.300781 47.851562 C 83.191406 51.777344 83.550781 53.371094 83.550781 57.75 C 83.519531 63.179688 82.230469 67.109375 79.109375 71.25 C 71.011719 82.019531 54.960938 83.160156 45.449219 73.621094 C 36.898438 65.101562 36.539062 51.480469 44.609375 42.628906 C 50.039062 36.660156 57.960938 34.140625 66 35.789062 Z M 66 35.789062 "/>
<path style=" stroke:none;fill-rule:nonzero;fill:rgb(0%,0%,0%);fill-opacity:1;" d="M 72.210938 40.441406 C 71.910156 40.738281 71.789062 41.101562 71.910156 41.222656 C 72.058594 41.339844 71.972656 41.398438 71.730469 41.339844 C 71.128906 41.191406 70.949219 41.972656 71.550781 42.179688 C 72.269531 42.449219 73.917969 40.832031 73.472656 40.289062 C 73.019531 39.777344 72.777344 39.808594 72.210938 40.441406 Z M 72.210938 40.441406 "/>
<path style=" stroke:none;fill-rule:nonzero;fill:rgb(0%,0%,0%);fill-opacity:1;" d="M 56.730469 40.800781 C 50.699219 42.390625 45.871094 47.25 44.25 53.398438 C 43.679688 55.527344 43.679688 59.972656 44.25 62.101562 C 45.480469 66.722656 49.199219 71.277344 53.398438 73.289062 C 56.308594 74.699219 58.050781 75.058594 61.351562 75.058594 C 70.890625 75.058594 78.601562 67.199219 78.601562 57.570312 C 78.601562 53.101562 77.101562 49.320312 74.128906 46.109375 C 69.390625 41.070312 63.121094 39.148438 56.730469 40.800781 Z M 65.070312 42.449219 C 69.511719 43.621094 73.410156 46.890625 75.449219 51.148438 C 76.527344 53.371094 76.621094 53.789062 76.738281 56.699219 C 76.832031 59.011719 76.738281 60.390625 76.378906 61.769531 C 74.371094 69.570312 66.089844 74.730469 58.199219 73.082031 C 52.199219 71.820312 47.550781 67.472656 46.019531 61.648438 C 45.390625 59.371094 45.480469 55.320312 46.199219 53.039062 C 47.730469 48.089844 52.140625 43.859375 57.210938 42.449219 C 59.160156 41.910156 63.089844 41.910156 65.070312 42.449219 Z M 65.070312 42.449219 "/>
<path style=" stroke:none;fill-rule:nonzero;fill:rgb(0%,0%,0%);fill-opacity:1;" d="M 68.160156 45.601562 C 67.679688 46.410156 67.710938 47.011719 68.25 47.222656 C 68.972656 47.488281 69.539062 46.019531 68.972656 45.449219 C 68.582031 45.058594 68.488281 45.089844 68.160156 45.601562 Z M 68.160156 45.601562 "/>
<path style=" stroke:none;fill-rule:nonzero;fill:rgb(0%,0%,0%);fill-opacity:1;" d="M 58.5 46.621094 C 55.050781 47.550781 52.410156 49.710938 50.972656 52.679688 C 48.238281 58.472656 50.582031 65.191406 56.339844 68.011719 C 57.871094 68.761719 58.378906 68.851562 61.050781 68.851562 C 63.722656 68.851562 64.261719 68.761719 65.910156 67.980469 C 68.222656 66.929688 70.527344 64.589844 71.640625 62.191406 C 72.300781 60.722656 72.449219 60.027344 72.449219 57.75 C 72.449219 55.320312 72.359375 54.839844 71.519531 53.101562 C 70.289062 50.582031 68.851562 48.929688 66.898438 47.878906 C 63.988281 46.289062 61.199219 45.871094 58.5 46.621094 Z M 65.398438 49.050781 C 71.371094 52.082031 72.660156 59.761719 67.980469 64.351562 C 65.667969 66.628906 64.589844 67.050781 61.199219 67.050781 C 58.800781 67.050781 58.140625 66.929688 57 66.359375 C 51.511719 63.511719 49.917969 56.582031 53.609375 51.777344 C 54.75 50.277344 57.121094 48.722656 58.890625 48.269531 C 60.628906 47.820312 63.722656 48.179688 65.398438 49.050781 Z M 65.398438 49.050781 "/>
<path style=" stroke:none;fill-rule:nonzero;fill:rgb(0%,0%,0%);fill-opacity:1;" d="M 65.667969 51.359375 C 65.667969 51.570312 65.609375 51.960938 65.550781 52.230469 C 65.519531 52.472656 65.640625 52.917969 65.851562 53.191406 C 66.511719 54.121094 66.960938 53.039062 66.628906 51.210938 C 66.570312 50.851562 65.699219 50.972656 65.667969 51.359375 Z M 65.667969 51.359375 "/>
<path style=" stroke:none;fill-rule:nonzero;fill:rgb(0%,0%,0%);fill-opacity:1;" d="M 58.949219 53.011719 C 56.910156 54.089844 56.039062 55.472656 56.039062 57.628906 C 56.039062 62.429688 61.738281 64.710938 64.949219 61.167969 C 65.519531 60.539062 66.058594 59.667969 66.179688 59.25 C 66.511719 57.929688 66.121094 55.621094 65.429688 54.628906 C 64.050781 52.710938 60.960938 51.929688 58.949219 53.011719 Z M 63.300781 54.898438 C 65.070312 56.160156 65.101562 58.738281 63.417969 60.332031 C 62.277344 61.410156 60.058594 61.351562 58.859375 60.210938 C 56.550781 57.988281 57.988281 54.300781 61.140625 54.300781 C 61.980469 54.300781 62.761719 54.511719 63.300781 54.898438 Z M 63.300781 54.898438 "/>
<path style=" stroke:none;fill-rule:nonzero;fill:rgb(0%,0%,0%);fill-opacity:1;" d="M 65.730469 62.222656 C 65.371094 62.640625 65.609375 64.5 66 64.5 C 66.660156 64.5 66.898438 63.539062 66.628906 62.011719 C 66.570312 61.679688 66.089844 61.769531 65.730469 62.222656 Z M 65.730469 62.222656 "/>
<path style=" stroke:none;fill-rule:nonzero;fill:rgb(0%,0%,0%);fill-opacity:1;" d="M 72.871094 51.210938 C 72.660156 51.777344 72.691406 52.261719 72.929688 52.890625 L 73.320312 53.789062 L 73.589844 53.070312 C 73.980469 51.988281 74.101562 51.332031 73.890625 50.851562 C 73.648438 50.160156 73.230469 50.308594 72.871094 51.210938 Z M 72.871094 51.210938 "/>
<path style=" stroke:none;fill-rule:nonzero;fill:rgb(0%,0%,0%);fill-opacity:1;" d="M 72.777344 62.609375 C 72.660156 62.878906 72.722656 63.539062 72.929688 64.109375 C 73.167969 64.917969 73.351562 65.070312 73.648438 64.800781 C 74.039062 64.472656 74.039062 63.027344 73.648438 62.398438 C 73.378906 61.949219 72.988281 62.039062 72.777344 62.609375 Z M 72.777344 62.609375 "/>
<path style=" stroke:none;fill-rule:nonzero;fill:rgb(0%,0%,0%);fill-opacity:1;" d="M 68.128906 68.222656 C 67.648438 68.789062 68.011719 69.960938 68.640625 69.839844 C 68.878906 69.777344 69.148438 69.570312 69.238281 69.332031 C 69.332031 69.058594 69.238281 69 69 69.148438 C 68.730469 69.300781 68.667969 69.269531 68.820312 69.058594 C 68.941406 68.851562 68.910156 68.488281 68.761719 68.222656 C 68.519531 67.800781 68.460938 67.800781 68.128906 68.222656 Z M 68.128906 68.222656 "/>
<path style=" stroke:none;fill-rule:nonzero;fill:rgb(0%,0%,0%);fill-opacity:1;" d="M 76.832031 45.390625 C 76.441406 45.839844 76.261719 46.289062 76.378906 46.589844 C 76.621094 47.25 76.648438 47.25 77.699219 46.289062 C 78.390625 45.691406 78.511719 45.417969 78.269531 45.089844 C 77.789062 44.550781 77.609375 44.582031 76.832031 45.390625 Z M 76.832031 45.390625 "/>
<path style=" stroke:none;fill-rule:nonzero;fill:rgb(0%,0%,0%);fill-opacity:1;" d="M 80.519531 50.339844 C 79.859375 50.820312 79.289062 52.109375 79.410156 52.949219 C 79.472656 53.429688 79.589844 53.878906 79.648438 53.941406 C 79.800781 54.089844 81.300781 51.269531 81.300781 50.820312 C 81.300781 50.339844 80.910156 50.070312 80.519531 50.339844 Z M 80.519531 50.339844 "/>
<path style=" stroke:none;fill-rule:nonzero;fill:rgb(0%,0%,0%);fill-opacity:1;" d="M 79.410156 62.160156 C 79.261719 63.148438 80.128906 65.101562 80.730469 65.101562 C 81.179688 65.101562 81.449219 64.109375 81.058594 63.960938 C 80.851562 63.898438 80.699219 63.660156 80.699219 63.417969 C 80.699219 63.210938 80.460938 62.609375 80.128906 62.101562 L 79.558594 61.167969 Z M 79.410156 62.160156 "/>
<path style=" stroke:none;fill-rule:nonzero;fill:rgb(0%,0%,0%);fill-opacity:1;" d="M 76.351562 68.699219 C 76.140625 69.027344 77.039062 70.378906 77.640625 70.621094 C 78.359375 70.917969 78.390625 69.871094 77.699219 69.121094 C 76.949219 68.339844 76.648438 68.25 76.351562 68.699219 Z M 76.351562 68.699219 "/>
<path style=" stroke:none;fill-rule:nonzero;fill:rgb(0%,0%,0%);fill-opacity:1;" d="M 71.640625 73.230469 C 71.339844 73.378906 71.101562 73.679688 71.101562 73.832031 C 71.101562 74.011719 71.222656 74.070312 71.339844 73.980469 C 71.488281 73.890625 71.789062 74.128906 72 74.550781 C 72.238281 75 72.570312 75.210938 72.988281 75.121094 C 73.949219 74.941406 73.980469 74.730469 73.019531 73.800781 C 72.332031 73.109375 72.027344 72.988281 71.640625 73.230469 Z M 71.640625 73.230469 "/>
<path style=" stroke:none;fill-rule:nonzero;fill:rgb(0%,0%,0%);fill-opacity:1;" d="M 87.210938 33.777344 C 87.148438 33.839844 86.429688 33.960938 85.621094 34.050781 C 83.582031 34.261719 80.339844 35.222656 80.609375 35.550781 C 80.730469 35.667969 80.667969 35.699219 80.460938 35.582031 C 80.101562 35.371094 76.949219 36.722656 76.621094 37.230469 C 76.558594 37.351562 76.679688 37.589844 76.917969 37.769531 C 77.429688 38.191406 78.988281 37.589844 78.691406 37.082031 C 78.601562 36.898438 78.601562 36.839844 78.75 36.960938 C 78.871094 37.082031 79.472656 36.960938 80.070312 36.722656 C 81.511719 36.089844 84.777344 35.222656 86.101562 35.101562 C 88.980469 34.859375 94.527344 35.101562 94.320312 35.460938 C 94.230469 35.609375 94.472656 35.699219 94.859375 35.699219 C 95.25 35.699219 95.699219 35.820312 95.851562 35.972656 C 96.027344 36.148438 96.511719 36.332031 96.960938 36.417969 C 97.410156 36.480469 98.371094 36.898438 99.121094 37.351562 C 99.871094 37.800781 100.5 38.039062 100.5 37.917969 C 100.5 37.800781 100.679688 37.890625 100.890625 38.128906 C 101.070312 38.398438 102.121094 39.300781 103.199219 40.140625 C 104.277344 41.011719 105.332031 41.910156 105.539062 42.148438 C 105.871094 42.539062 106.050781 42.570312 106.441406 42.238281 C 106.890625 41.910156 106.890625 41.910156 106.589844 42.300781 C 106.320312 42.660156 106.527344 43.167969 107.730469 44.941406 C 108.539062 46.167969 109.199219 47.339844 109.199219 47.550781 C 109.199219 47.761719 109.351562 48 109.527344 48.058594 C 109.679688 48.121094 109.859375 48.359375 109.890625 48.601562 C 109.949219 48.839844 110.039062 49.167969 110.128906 49.351562 C 110.25 49.5 110.429688 50.039062 110.550781 50.550781 C 110.878906 51.75 110.910156 51.871094 111 52.109375 C 111.148438 52.621094 111.210938 52.980469 111.238281 53.789062 C 111.269531 54.269531 111.390625 54.570312 111.539062 54.511719 C 111.75 54.359375 111.480469 61.441406 111.179688 62.667969 C 110.851562 64.050781 110.308594 65.550781 109.621094 66.929688 C 109.230469 67.710938 109.019531 68.398438 109.109375 68.519531 C 109.230469 68.609375 109.140625 68.699219 108.988281 68.699219 C 108.808594 68.699219 108.359375 69.300781 108 70.019531 C 107.667969 70.738281 107.160156 71.429688 106.917969 71.519531 C 106.679688 71.609375 106.558594 71.820312 106.648438 72 C 106.738281 72.148438 106.648438 72.300781 106.441406 72.300781 C 106.230469 72.332031 105.511719 72.988281 104.851562 73.800781 C 104.191406 74.582031 103.558594 75.179688 103.472656 75.121094 C 103.351562 75.058594 102.988281 75.300781 102.691406 75.660156 C 102.390625 76.050781 101.667969 76.589844 101.101562 76.917969 C 98.609375 78.269531 96.601562 79.199219 96.148438 79.199219 C 95.878906 79.199219 95.730469 79.320312 95.820312 79.441406 C 95.878906 79.558594 95.730469 79.679688 95.460938 79.710938 C 95.191406 79.710938 93.808594 79.890625 92.429688 80.101562 C 89.640625 80.519531 83.582031 80.308594 83.101562 79.800781 C 82.859375 79.527344 80.308594 78.777344 79.738281 78.808594 C 79.441406 78.808594 79.261719 78.722656 79.351562 78.601562 C 79.410156 78.480469 79.019531 78.121094 78.449219 77.820312 C 77.519531 77.339844 77.371094 77.308594 76.949219 77.730469 C 76.527344 78.121094 76.648438 78.269531 78 78.988281 C 78.808594 79.441406 79.769531 79.800781 80.101562 79.800781 C 80.429688 79.800781 80.699219 79.949219 80.699219 80.128906 C 80.699219 80.308594 80.878906 80.398438 81.121094 80.308594 C 81.332031 80.222656 81.628906 80.25 81.777344 80.398438 C 82.472656 81.089844 86.699219 81.660156 89.699219 81.480469 C 91.261719 81.390625 92.851562 81.300781 93.238281 81.300781 C 93.628906 81.300781 93.839844 81.148438 93.75 81 C 93.660156 80.820312 93.777344 80.789062 94.019531 80.878906 C 94.589844 81.089844 97.832031 80.101562 97.648438 79.800781 C 97.558594 79.648438 97.769531 79.621094 98.101562 79.710938 C 98.460938 79.800781 98.699219 79.710938 98.699219 79.472656 C 98.699219 79.261719 98.789062 79.199219 98.910156 79.289062 C 99.332031 79.710938 104.519531 76.109375 106.050781 74.339844 C 108.210938 71.820312 108.839844 70.980469 108.722656 70.738281 C 108.628906 70.621094 108.722656 70.5 108.929688 70.5 C 109.140625 70.5 109.230469 70.410156 109.140625 70.320312 C 109.019531 70.230469 109.230469 69.871094 109.558594 69.539062 C 109.917969 69.179688 110.070312 68.761719 109.949219 68.460938 C 109.859375 68.191406 109.859375 68.070312 109.980469 68.191406 C 110.25 68.460938 111.332031 66.269531 111.121094 65.941406 C 111.027344 65.789062 111.089844 65.699219 111.238281 65.699219 C 111.480469 65.699219 111.777344 64.800781 112.410156 62.25 C 112.679688 61.019531 112.859375 54.898438 112.621094 54.898438 C 112.472656 54.898438 112.320312 54.449219 112.320312 53.910156 C 112.261719 52.410156 112.082031 51.601562 111.839844 51.601562 C 111.722656 51.601562 111.691406 51.417969 111.777344 51.179688 C 111.871094 50.941406 111.75 50.339844 111.480469 49.859375 C 111.238281 49.378906 111.121094 48.898438 111.210938 48.777344 C 111.332031 48.691406 111.238281 48.601562 111.027344 48.601562 C 110.820312 48.601562 110.730469 48.480469 110.820312 48.359375 C 110.910156 48.210938 110.640625 47.609375 110.222656 47.011719 C 109.800781 46.410156 109.558594 45.898438 109.621094 45.898438 C 110.160156 45.898438 107.25 42.148438 105.148438 40.109375 C 103.890625 38.878906 100.109375 36.300781 99.601562 36.300781 C 99.417969 36.300781 98.609375 35.972656 97.800781 35.550781 C 96.960938 35.128906 96.300781 34.859375 96.300781 34.917969 C 96.300781 35.011719 95.761719 34.890625 95.101562 34.648438 C 93.390625 34.050781 87.601562 33.417969 87.210938 33.777344 Z M 87.210938 33.777344 "/>
<path style=" stroke:none;fill-rule:nonzero;fill:rgb(0%,0%,0%);fill-opacity:1;" d="M 86.25 40.679688 C 84.390625 41.070312 82.199219 41.820312 82.199219 42.058594 C 82.199219 42.210938 82.050781 42.238281 81.871094 42.121094 C 81.660156 42 81.570312 42.089844 81.660156 42.332031 C 81.839844 42.898438 82.738281 43.019531 83.519531 42.628906 C 84.777344 42 86.429688 41.761719 88.917969 41.789062 C 90.539062 41.820312 91.378906 41.730469 91.261719 41.550781 C 91.167969 41.371094 91.289062 41.398438 91.527344 41.609375 C 91.769531 41.789062 92.640625 42.121094 93.449219 42.332031 C 94.289062 42.511719 95.160156 42.839844 95.398438 43.019531 C 96.417969 43.769531 97.738281 44.371094 97.949219 44.160156 C 98.101562 44.039062 98.101562 44.128906 97.980469 44.308594 C 97.859375 44.519531 97.890625 44.699219 98.070312 44.699219 C 98.667969 44.699219 102.601562 48.871094 102.601562 49.5 C 102.601562 49.679688 102.75 49.800781 102.929688 49.800781 C 103.082031 49.800781 103.167969 49.917969 103.082031 50.039062 C 102.988281 50.191406 103.140625 50.582031 103.441406 50.878906 C 103.710938 51.179688 103.980469 51.777344 104.039062 52.167969 C 104.070312 52.589844 104.339844 53.191406 104.640625 53.519531 C 104.910156 53.851562 105.027344 54.027344 104.851562 53.941406 C 104.667969 53.820312 104.582031 54.839844 104.667969 56.789062 C 104.789062 60.269531 104.398438 62.371094 103.167969 64.832031 C 102.691406 65.761719 102.417969 66.628906 102.539062 66.75 C 102.660156 66.898438 102.601562 66.898438 102.390625 66.777344 C 101.910156 66.511719 101.339844 67.589844 101.699219 68.039062 C 101.910156 68.308594 101.910156 68.308594 101.667969 68.128906 C 101.339844 67.859375 100.949219 68.128906 98.128906 70.800781 C 97.527344 71.371094 95.308594 72.449219 93.390625 73.082031 C 91.917969 73.589844 87.929688 73.769531 85.949219 73.441406 C 85.289062 73.351562 84.148438 73.019531 83.429688 72.777344 C 82.378906 72.390625 82.050781 72.359375 81.871094 72.660156 C 81.570312 73.109375 82.679688 73.917969 83.277344 73.679688 C 83.582031 73.558594 83.667969 73.621094 83.519531 73.859375 C 83.371094 74.101562 83.460938 74.128906 83.789062 74.011719 C 84.089844 73.917969 84.300781 73.949219 84.300781 74.101562 C 84.300781 74.339844 85.320312 74.550781 88.050781 74.820312 C 89.640625 75 93.300781 74.488281 93.839844 74.011719 C 94.082031 73.832031 94.351562 73.679688 94.410156 73.710938 C 94.710938 73.949219 95.101562 73.738281 94.917969 73.441406 C 94.800781 73.230469 94.832031 73.199219 95.070312 73.320312 C 95.519531 73.589844 96.660156 73.230469 96.449219 72.871094 C 96.359375 72.722656 96.449219 72.691406 96.660156 72.75 C 97.167969 72.960938 99.058594 71.582031 98.761719 71.25 C 98.640625 71.101562 98.730469 71.101562 98.941406 71.222656 C 99.628906 71.609375 103.917969 66.960938 104.160156 65.550781 C 104.191406 65.222656 104.339844 64.859375 104.488281 64.769531 C 104.609375 64.679688 105 63.808594 105.359375 62.820312 C 106.019531 60.960938 106.289062 56.582031 105.839844 54.75 C 105.722656 54.238281 105.539062 53.550781 105.480469 53.160156 C 105.210938 51.871094 104.582031 50.398438 104.277344 50.398438 C 104.128906 50.398438 104.101562 50.308594 104.191406 50.191406 C 104.582031 49.832031 101.878906 45.960938 101.339844 46.140625 C 101.191406 46.167969 101.128906 46.082031 101.222656 45.929688 C 101.429688 45.601562 99.480469 43.949219 97.558594 42.839844 C 96.238281 42.058594 94.679688 41.488281 92.101562 40.859375 C 90.988281 40.589844 87.269531 40.472656 86.25 40.679688 Z M 86.25 40.679688 "/>
<path style=" stroke:none;fill-rule:nonzero;fill:rgb(0%,0%,0%);fill-opacity:1;" d="M 87.300781 46.589844 C 87.210938 46.679688 86.667969 46.859375 86.101562 46.949219 C 84.839844 47.160156 84.359375 47.582031 84.777344 48 C 84.988281 48.210938 85.589844 48.210938 86.699219 47.972656 C 87.628906 47.761719 89.011719 47.699219 89.972656 47.851562 C 90.898438 47.941406 91.949219 48.058594 92.308594 48.089844 C 92.667969 48.089844 92.910156 48.210938 92.820312 48.332031 C 92.761719 48.449219 93.121094 48.691406 93.601562 48.898438 C 94.109375 49.109375 94.5 49.378906 94.5 49.527344 C 94.5 49.679688 94.589844 49.769531 94.738281 49.738281 C 95.160156 49.589844 97.410156 52.378906 98.039062 53.910156 C 99.390625 57.089844 98.667969 61.558594 96.480469 64.050781 C 95.910156 64.679688 95.488281 65.339844 95.582031 65.460938 C 95.667969 65.609375 95.640625 65.699219 95.488281 65.667969 C 94.949219 65.582031 94.589844 65.730469 93.960938 66.300781 C 93.601562 66.660156 93.300781 66.871094 93.300781 66.777344 C 93.300781 66.691406 92.730469 66.839844 92.039062 67.082031 C 90.570312 67.589844 87.601562 67.679688 86.128906 67.230469 C 85.351562 66.988281 85.019531 66.988281 84.839844 67.289062 C 84.449219 67.890625 84.539062 67.980469 86.101562 68.371094 C 89.398438 69.210938 93.691406 68.25 96.148438 66.121094 C 96.660156 65.667969 96.839844 65.429688 96.601562 65.550781 C 96.359375 65.667969 96.570312 65.398438 97.109375 64.917969 C 98.25 63.898438 99.722656 61.082031 99.480469 60.417969 C 99.390625 60.179688 99.417969 60.027344 99.570312 60.121094 C 99.929688 60.359375 100.261719 58.050781 100.019531 56.761719 C 99.898438 56.128906 99.601562 55.378906 99.332031 55.050781 C 98.878906 54.511719 98.878906 54.480469 99.359375 54.839844 C 99.777344 55.167969 99.839844 55.167969 99.691406 54.628906 C 99.601562 54.269531 99.417969 54 99.269531 54 C 99.121094 54 99.089844 53.789062 99.179688 53.550781 C 99.300781 53.308594 99.210938 53.101562 99 53.101562 C 98.820312 53.101562 98.761719 52.949219 98.851562 52.800781 C 98.941406 52.621094 98.878906 52.5 98.699219 52.5 C 98.519531 52.5 98.429688 52.378906 98.519531 52.230469 C 98.609375 52.109375 97.949219 51.210938 97.050781 50.222656 C 96.148438 49.261719 95.398438 48.601562 95.398438 48.722656 C 95.398438 48.871094 95.101562 48.722656 94.738281 48.390625 C 94.351562 48.058594 93.449219 47.550781 92.699219 47.277344 C 91.378906 46.738281 87.601562 46.289062 87.300781 46.589844 Z M 87.300781 46.589844 "/>
<path style=" stroke:none;fill-rule:nonzero;fill:rgb(0%,0%,0%);fill-opacity:1;" d="M 86.878906 53.191406 C 86.582031 53.398438 86.371094 53.789062 86.429688 54.058594 C 86.519531 54.417969 86.699219 54.480469 87.300781 54.210938 C 87.722656 54.058594 88.378906 53.941406 88.769531 53.972656 C 89.191406 54.027344 89.398438 53.941406 89.277344 53.730469 C 89.160156 53.550781 89.667969 53.761719 90.390625 54.238281 C 92.101562 55.261719 92.460938 55.832031 92.550781 57.722656 C 92.609375 59.070312 92.519531 59.339844 91.679688 60.179688 C 90.570312 61.289062 88.832031 61.738281 87.722656 61.230469 C 86.667969 60.75 86.398438 60.808594 86.398438 61.5 C 86.398438 61.917969 86.699219 62.160156 87.539062 62.371094 C 88.410156 62.609375 89.851562 62.640625 89.851562 62.398438 C 89.851562 62.371094 90.121094 62.308594 90.449219 62.25 C 91.5 62.039062 92.25 61.5 92.972656 60.390625 C 94.019531 58.800781 94.140625 57.058594 93.300781 55.378906 C 92.941406 54.628906 92.550781 54.058594 92.398438 54.148438 C 92.277344 54.238281 92.070312 54.089844 91.980469 53.820312 C 91.890625 53.582031 91.679688 53.429688 91.527344 53.550781 C 91.378906 53.640625 91.167969 53.582031 91.050781 53.398438 C 90.929688 53.222656 90.722656 53.160156 90.570312 53.25 C 90.417969 53.371094 90.300781 53.277344 90.300781 53.128906 C 90.300781 52.648438 87.511719 52.710938 86.878906 53.191406 Z M 86.878906 53.191406 "/>
<path style=" stroke:none;fill-rule:nonzero;fill:rgb(0%,0%,0%);fill-opacity:1;" d="M 29.371094 86.488281 C 28.082031 87.359375 27.601562 88.289062 27.601562 89.941406 C 27.601562 91.800781 28.859375 93 31.738281 93.929688 C 34.621094 94.859375 35.820312 95.851562 35.820312 97.289062 C 35.820312 100.140625 31.769531 101.101562 28.832031 99 C 27.390625 97.949219 27 97.890625 27 98.667969 C 27 99.449219 29.460938 101.039062 31.050781 101.277344 C 34.378906 101.761719 37.199219 99.898438 37.199219 97.261719 C 37.199219 95.191406 35.582031 93.777344 31.832031 92.550781 C 28.800781 91.558594 27.898438 89.640625 29.667969 87.871094 C 30.417969 87.121094 30.777344 87 32.160156 87 C 33.660156 87 34.351562 87.210938 35.910156 88.199219 C 36.691406 88.710938 37.019531 88.472656 36.75 87.628906 C 36.210938 85.917969 31.351562 85.167969 29.371094 86.488281 Z M 29.371094 86.488281 "/>
<path style=" stroke:none;fill-rule:nonzero;fill:rgb(0%,0%,0%);fill-opacity:1;" d="M 40.949219 86.160156 C 40.859375 86.371094 40.832031 89.789062 40.859375 93.75 C 40.949219 100.351562 40.980469 100.949219 41.488281 101.039062 C 41.972656 101.128906 42 100.679688 41.941406 93.570312 C 41.878906 87.839844 41.761719 85.980469 41.488281 85.859375 C 41.277344 85.800781 41.039062 85.917969 40.949219 86.160156 Z M 40.949219 86.160156 "/>
<path style=" stroke:none;fill-rule:nonzero;fill:rgb(0%,0%,0%);fill-opacity:1;" d="M 47.011719 86.011719 C 46.890625 86.101562 46.800781 89.550781 46.800781 93.660156 C 46.800781 100.019531 46.859375 101.101562 47.25 101.101562 C 47.609375 101.101562 47.699219 100.109375 47.761719 94.710938 L 47.851562 88.351562 L 50.972656 92.550781 C 56.941406 100.589844 57.359375 101.101562 57.777344 101.101562 C 58.140625 101.101562 58.199219 99.929688 58.140625 93.601562 C 58.082031 88.859375 57.929688 86.101562 57.75 86.101562 C 57.570312 86.101562 57.417969 88.441406 57.359375 92.398438 C 57.332031 95.851562 57.179688 98.699219 57.058594 98.699219 C 56.941406 98.699219 56.308594 97.917969 55.648438 96.988281 C 53.609375 94.140625 47.398438 85.800781 47.308594 85.800781 C 47.25 85.800781 47.101562 85.890625 47.011719 86.011719 Z M 47.011719 86.011719 "/>
<path style=" stroke:none;fill-rule:nonzero;fill:rgb(0%,0%,0%);fill-opacity:1;" d="M 63.210938 85.980469 C 63.089844 86.101562 63 89.550781 63 93.660156 L 63 101.101562 L 67.527344 101.101562 C 71.667969 101.101562 72.027344 101.070312 71.941406 100.558594 C 71.851562 100.109375 71.371094 100.050781 68.011719 99.960938 L 64.199219 99.871094 L 64.199219 93.929688 L 67.589844 93.839844 C 70.351562 93.777344 70.949219 93.660156 70.949219 93.300781 C 70.949219 92.941406 70.351562 92.820312 67.589844 92.761719 L 64.199219 92.667969 L 64.199219 87 L 68.128906 87 C 71.699219 87 72.027344 86.941406 71.941406 86.460938 C 71.851562 86.011719 71.371094 85.949219 67.621094 85.859375 C 65.308594 85.832031 63.332031 85.890625 63.210938 85.980469 Z M 63.210938 85.980469 "/>
<path style=" stroke:none;fill-rule:nonzero;fill:rgb(0%,0%,0%);fill-opacity:1;" d="M 75.960938 86.191406 C 75.691406 86.519531 75.601562 88.441406 75.660156 93.777344 C 75.75 100.710938 75.777344 100.949219 76.351562 100.949219 C 76.917969 100.949219 76.949219 100.710938 77.039062 97.710938 L 77.128906 94.5 L 79.832031 94.5 C 83.640625 94.5 84.417969 94.980469 84.660156 97.5 C 84.871094 99.390625 85.378906 100.679688 86.039062 100.949219 C 86.820312 101.25 87.121094 100.621094 86.582031 99.871094 C 86.308594 99.480469 86.101562 98.761719 86.101562 98.25 C 86.101562 96.722656 85.527344 95.160156 84.722656 94.527344 L 83.972656 93.929688 L 84.722656 93.449219 C 86.398438 92.339844 86.878906 89.609375 85.710938 87.871094 C 84.691406 86.339844 83.699219 86.011719 79.800781 85.859375 C 76.980469 85.738281 76.261719 85.800781 75.960938 86.191406 Z M 84.332031 88.140625 C 85.289062 89.222656 85.410156 90.121094 84.75 91.679688 C 84.148438 93.121094 82.859375 93.601562 79.648438 93.601562 L 77.101562 93.601562 L 77.101562 86.941406 L 80.277344 87.058594 C 83.429688 87.179688 83.460938 87.179688 84.332031 88.140625 Z M 84.332031 88.140625 "/>
<path style=" stroke:none;fill-rule:nonzero;fill:rgb(0%,0%,0%);fill-opacity:1;" d="M 94.230469 86.277344 C 91.589844 87.449219 89.789062 89.910156 89.488281 92.820312 C 89.160156 95.910156 90.929688 99.089844 93.722656 100.589844 C 95.460938 101.519531 98.941406 101.488281 100.738281 100.558594 L 102 99.898438 L 102 93.601562 L 99.417969 93.601562 C 97.140625 93.601562 96.871094 93.660156 96.960938 94.109375 C 97.050781 94.558594 97.441406 94.679688 98.941406 94.738281 L 100.800781 94.832031 L 100.800781 97.019531 C 100.800781 99.238281 100.800781 99.238281 99.839844 99.628906 C 98.519531 100.167969 95.488281 100.109375 94.351562 99.539062 C 93.210938 98.941406 92.011719 97.648438 91.351562 96.332031 C 90.960938 95.582031 90.871094 94.769531 90.960938 93.121094 C 91.050781 91.289062 91.199219 90.722656 91.949219 89.640625 C 93.601562 87.269531 97.050781 86.308594 99.808594 87.449219 C 101.878906 88.320312 102.449219 87.332031 100.441406 86.398438 C 98.878906 85.679688 95.730469 85.648438 94.230469 86.277344 Z M 94.230469 86.277344 "/>
<path style=" stroke:none;fill-rule:nonzero;fill:rgb(0%,0%,0%);fill-opacity:1;" d="M 106.261719 86.160156 C 105.839844 86.582031 105.75 100.109375 106.167969 100.769531 C 106.320312 101.011719 106.648438 101.101562 106.917969 101.011719 C 107.339844 100.832031 107.398438 99.960938 107.398438 93.660156 C 107.398438 88.050781 107.308594 86.398438 107.011719 86.128906 C 106.710938 85.890625 106.5 85.917969 106.261719 86.160156 Z M 106.261719 86.160156 "/>
<path style=" stroke:none;fill-rule:nonzero;fill:rgb(0%,0%,0%);fill-opacity:1;" d="M 115.800781 87.359375 C 113.070312 93.722656 110.429688 100.648438 110.667969 100.890625 C 111.121094 101.339844 111.480469 100.917969 112.199219 99.089844 C 112.589844 98.128906 113.039062 97.167969 113.191406 96.960938 C 113.398438 96.722656 114.511719 96.601562 116.910156 96.601562 C 119.878906 96.601562 120.332031 96.660156 120.511719 97.109375 C 121.527344 100.140625 123 102.179688 123 100.621094 C 123 100.050781 117.691406 86.730469 117.210938 86.160156 C 116.730469 85.558594 116.488281 85.738281 115.800781 87.359375 Z M 118.289062 91.679688 C 119.070312 93.570312 119.699219 95.222656 119.699219 95.339844 C 119.699219 95.460938 118.378906 95.519531 116.789062 95.488281 C 114.601562 95.429688 113.878906 95.308594 113.941406 95.039062 C 114.148438 94.140625 116.582031 88.199219 116.730469 88.199219 C 116.820312 88.199219 117.539062 89.761719 118.289062 91.679688 Z M 118.289062 91.679688 "/>
<path style=" stroke:none;fill-rule:nonzero;fill:rgb(0%,0%,0%);fill-opacity:1;" d="M 54.898438 104.25 C 54.511719 104.667969 54.269531 105.089844 54.359375 105.179688 C 54.660156 105.449219 56.398438 104.398438 56.398438 103.949219 C 56.398438 103.261719 55.679688 103.410156 54.898438 104.25 Z M 54.898438 104.25 "/>
<path style=" stroke:none;fill-rule:nonzero;fill:rgb(0%,0%,0%);fill-opacity:1;" d="M 52.949219 106.109375 C 49.917969 106.949219 48.449219 111.449219 50.277344 114.179688 C 51.269531 115.648438 51.75 116.011719 53.222656 116.429688 C 57.417969 117.601562 60.722656 112.832031 58.679688 108.570312 C 57.777344 106.710938 55.050781 105.539062 52.949219 106.109375 Z M 56.851562 108 C 58.261719 109.320312 58.5 112.199219 57.359375 113.941406 C 56.460938 115.351562 54.332031 115.890625 52.800781 115.109375 C 50.128906 113.761719 49.980469 108.988281 52.558594 107.488281 C 53.609375 106.890625 55.949219 107.160156 56.851562 108 Z M 56.851562 108 "/>
<path style=" stroke:none;fill-rule:nonzero;fill:rgb(0%,0%,0%);fill-opacity:1;" d="M 86.070312 106.320312 C 84.777344 106.769531 83.519531 107.941406 83.101562 109.050781 C 82.621094 110.339844 82.738281 112.710938 83.398438 113.972656 C 84.511719 116.160156 87.210938 117.148438 89.550781 116.25 C 91.199219 115.648438 91.5 114.691406 89.941406 115.082031 C 89.398438 115.199219 88.320312 115.320312 87.539062 115.320312 C 86.371094 115.351562 85.980469 115.199219 85.199219 114.449219 C 84.027344 113.339844 83.582031 111.691406 84 110.128906 C 84.628906 107.761719 86.761719 106.679688 89.339844 107.371094 C 90.089844 107.550781 90.75 107.640625 90.839844 107.582031 C 91.199219 107.191406 90.511719 106.5 89.488281 106.230469 C 88.050781 105.808594 87.417969 105.839844 86.070312 106.320312 Z M 86.070312 106.320312 "/>
<path style=" stroke:none;fill-rule:nonzero;fill:rgb(0%,0%,0%);fill-opacity:1;" d="M 61.5 111.300781 C 61.5 115.621094 61.558594 116.398438 61.949219 116.398438 C 62.308594 116.398438 62.398438 115.980469 62.398438 114.300781 L 62.398438 112.199219 L 64.289062 112.199219 C 66.390625 112.199219 67.230469 111.777344 67.949219 110.371094 C 68.339844 109.679688 68.371094 109.261719 68.101562 108.300781 C 67.621094 106.558594 66.898438 106.199219 63.988281 106.199219 L 61.5 106.199219 Z M 66.601562 107.761719 C 67.289062 108.511719 67.378906 109.710938 66.777344 110.488281 C 66.390625 110.972656 64.917969 111.179688 62.789062 111.027344 C 62.371094 111 62.222656 107.667969 62.609375 107.308594 C 62.699219 107.191406 63.511719 107.101562 64.378906 107.101562 C 65.640625 107.101562 66.121094 107.25 66.601562 107.761719 Z M 66.601562 107.761719 "/>
<path style=" stroke:none;fill-rule:nonzero;fill:rgb(0%,0%,0%);fill-opacity:1;" d="M 69.601562 106.648438 C 69.601562 107.011719 69.988281 107.101562 71.25 107.101562 L 72.871094 107.101562 L 72.960938 111.660156 C 73.050781 115.5 73.109375 116.25 73.5 116.25 C 73.859375 116.25 73.980469 115.472656 74.101562 111.75 L 74.25 107.25 L 75.839844 107.160156 C 76.949219 107.101562 77.398438 106.949219 77.398438 106.621094 C 77.398438 106.289062 76.710938 106.199219 73.5 106.199219 C 70.230469 106.199219 69.601562 106.261719 69.601562 106.648438 Z M 69.601562 106.648438 "/>
<path style=" stroke:none;fill-rule:nonzero;fill:rgb(0%,0%,0%);fill-opacity:1;" d="M 79.5 111.269531 C 79.5 115.527344 79.558594 116.398438 79.917969 116.398438 C 80.550781 116.398438 80.730469 114.570312 80.640625 110.101562 C 80.550781 106.832031 80.488281 106.351562 80.039062 106.261719 C 79.527344 106.167969 79.5 106.558594 79.5 111.269531 Z M 79.5 111.269531 "/>
<path style=" stroke:none;fill-rule:nonzero;fill:rgb(0%,0%,0%);fill-opacity:1;" d="M 95.429688 107.160156 C 95.25 107.699219 94.351562 109.890625 93.480469 112.019531 C 92.582031 114.179688 91.890625 116.039062 91.980469 116.160156 C 92.308594 116.699219 92.761719 116.339844 93.300781 115.050781 L 93.871094 113.699219 L 98.609375 113.699219 L 99.179688 114.960938 C 99.722656 116.160156 100.738281 116.789062 100.558594 115.800781 C 100.527344 115.558594 99.660156 113.277344 98.609375 110.789062 C 96.628906 105.898438 96.058594 105.269531 95.429688 107.160156 Z M 97.140625 109.859375 C 97.472656 110.730469 97.832031 111.691406 97.949219 111.960938 C 98.128906 112.441406 97.949219 112.5 96.332031 112.5 C 95.308594 112.5 94.5 112.378906 94.5 112.199219 C 94.5 112.019531 94.769531 111.332031 95.070312 110.609375 C 95.371094 109.917969 95.699219 109.109375 95.820312 108.808594 C 96.089844 107.941406 96.480469 108.238281 97.140625 109.859375 Z M 97.140625 109.859375 "/>
</g>
</svg>
