<?xml version="1.0" standalone="no"?>
<!DOCTYPE svg PUBLIC "-//W3C//DTD SVG 20010904//EN"
 "http://www.w3.org/TR/2001/REC-SVG-20010904/DTD/svg10.dtd">
<svg version="1.0" xmlns="http://www.w3.org/2000/svg"
 width="781.000000pt" height="319.000000pt" viewBox="0 0 781.000000 319.000000"
 preserveAspectRatio="xMidYMid meet">

<g transform="translate(0.000000,319.000000) scale(0.100000,-0.100000)"
fill="#000000" stroke="none">
<path d="M4896 3101 c-18 -29 -86 -491 -86 -583 0 -44 4 -60 16 -65 28 -10 36
13 55 154 18 134 49 435 49 481 0 22 -23 31 -34 13z"/>
<path d="M4400 2803 c1 -91 29 -366 39 -376 5 -5 16 -7 23 -4 11 4 12 27 5
123 -15 208 -30 298 -49 302 -15 3 -18 -4 -18 -45z"/>
<path d="M5353 2772 c-15 -9 -165 -411 -157 -423 16 -26 36 1 80 104 69 165
123 310 118 319 -6 10 -25 10 -41 0z"/>
<path d="M5629 2377 c-60 -80 -169 -247 -169 -258 0 -17 37 -9 57 14 44 49
203 276 203 291 0 10 -9 16 -22 16 -16 0 -37 -19 -69 -63z"/>
<path d="M5869 2124 c-59 -40 -119 -93 -119 -106 0 -21 38 -2 120 58 82 60
101 84 66 84 -8 0 -38 -16 -67 -36z"/>
<path d="M1152 2081 c-199 -69 -443 -377 -541 -684 -36 -114 -40 -191 -12
-254 32 -69 59 -78 307 -93 201 -13 252 -27 310 -87 24 -24 44 -51 44 -58 0
-7 -37 -45 -83 -83 -239 -203 -348 -369 -290 -441 28 -35 109 -33 181 3 157
80 290 317 254 455 -9 38 -8 41 27 73 20 19 74 65 121 103 47 38 120 101 163
139 43 39 83 71 89 71 6 0 17 -25 25 -55 15 -58 35 -87 70 -101 44 -16 84 2
158 73 40 37 75 68 77 68 3 0 8 -13 12 -30 4 -20 11 -30 24 -30 25 0 46 24
101 117 25 42 51 78 58 80 7 3 14 -19 18 -64 18 -174 96 -220 189 -112 35 42
50 48 59 25 10 -26 67 -49 108 -43 44 6 122 43 146 69 33 37 43 23 43 -61 0
-44 4 -82 9 -86 14 -8 31 28 31 67 0 39 29 107 54 127 16 13 132 19 143 7 3
-2 0 -14 -6 -25 -17 -31 -18 -111 -2 -120 25 -16 56 2 122 70 36 38 69 66 72
62 4 -3 7 -35 7 -69 0 -60 -2 -66 -45 -116 -80 -95 -156 -207 -198 -291 -34
-69 -41 -94 -45 -159 -4 -72 -3 -78 21 -102 79 -79 205 24 261 214 25 82 46
226 46 306 0 54 4 77 18 92 32 37 133 112 143 107 5 -4 9 -18 9 -33 0 -15 11
-50 24 -78 46 -99 113 -95 222 13 36 35 67 63 68 61 1 -2 6 -16 12 -33 6 -20
17 -31 33 -33 25 -4 37 8 83 86 33 58 48 62 60 15 12 -45 61 -83 106 -83 44 0
83 22 135 76 33 34 49 74 30 74 -3 0 -34 -27 -69 -60 -47 -45 -69 -60 -91 -60
-53 1 -83 44 -83 123 0 48 -12 72 -31 65 -8 -3 -36 -44 -62 -92 -27 -47 -53
-86 -58 -86 -35 0 29 159 82 205 35 29 48 31 75 10 41 -31 60 -11 22 25 -29
26 -87 27 -121 0 -14 -11 -43 -49 -63 -83 -45 -75 -163 -208 -208 -237 -65
-39 -90 -25 -108 63 -9 44 -9 76 1 148 9 64 10 94 2 102 -18 18 -40 -12 -53
-75 -12 -58 -15 -62 -82 -114 -38 -30 -75 -54 -83 -54 -9 0 -13 16 -13 54 0
63 -13 106 -33 106 -8 0 -29 -24 -48 -52 -60 -94 -150 -169 -149 -125 1 25 47
123 79 167 28 39 92 90 114 90 4 0 16 -9 28 -21 24 -24 34 -19 25 14 -17 69
-120 29 -201 -78 -26 -34 -27 -34 -88 -28 -58 5 -86 -1 -149 -35 -4 -2 -4 29
-1 68 6 67 5 72 -13 68 -20 -3 -31 -34 -33 -87 -1 -25 -10 -42 -38 -69 -43
-40 -126 -82 -164 -82 -36 0 -66 28 -74 67 -6 30 -4 33 32 48 106 45 158 165
71 165 -46 0 -121 -78 -142 -148 -8 -29 -32 -76 -52 -103 -84 -115 -129 -87
-144 89 -5 52 -12 98 -17 103 -19 19 -45 -5 -106 -95 -73 -108 -84 -97 -43 42
30 101 31 112 11 112 -17 0 -48 -57 -65 -120 -23 -87 -180 -246 -235 -238 -11
2 -28 19 -38 38 -18 35 -19 61 -4 265 2 24 -2 30 -18 30 -16 0 -22 -11 -33
-55 -22 -90 -24 -94 -101 -164 -87 -79 -265 -228 -315 -263 l-34 -25 -49 50
c-76 79 -198 111 -414 112 -88 0 -168 21 -195 51 -15 17 -19 36 -18 98 1 159
103 376 269 571 100 117 150 161 229 204 149 78 233 30 266 -153 14 -77 7
-172 -25 -335 -13 -65 -21 -124 -18 -132 10 -26 32 -14 42 24 48 180 55 220
55 352 1 128 -1 138 -27 195 -34 71 -50 91 -99 116 -46 24 -98 24 -166 0z
m1498 -669 c0 -24 -84 -101 -97 -88 -8 7 24 57 51 78 22 18 46 24 46 10z m582
-418 c-12 -212 -71 -399 -143 -446 -47 -30 -67 -31 -95 -3 -24 25 -26 31 -20
83 8 65 40 150 87 228 51 83 149 206 162 201 8 -2 11 -25 9 -63z m-1946 -179
c31 -167 -180 -436 -332 -423 -37 3 -39 5 -42 38 -4 54 57 147 168 256 93 91
178 164 192 164 4 0 10 -16 14 -35z"/>
<path d="M4760 2062 c-55 -27 -119 -97 -153 -170 -59 -125 -45 -313 28 -382
29 -27 30 -46 10 -115 -42 -138 -54 -413 -24 -556 28 -133 120 -255 210 -279
214 -58 430 161 510 515 28 126 31 359 6 471 -39 174 -96 283 -208 396 -99
101 -173 138 -274 138 -45 0 -82 -6 -105 -18z m237 -47 c105 -57 187 -148 248
-277 120 -254 118 -627 -6 -872 -101 -200 -216 -294 -348 -284 -140 10 -228
150 -238 378 -7 154 22 416 51 455 10 15 16 14 58 -10 25 -14 77 -32 115 -40
78 -17 213 -20 213 -5 0 13 -27 18 -125 23 -124 8 -245 58 -245 102 0 11 16
58 36 105 44 107 58 155 50 177 -6 14 -9 15 -20 2 -11 -12 -85 -183 -100 -232
-9 -29 -29 -15 -59 44 -26 49 -28 62 -24 144 2 71 8 102 29 146 32 71 91 136
143 161 58 27 155 20 222 -17z"/>
<path d="M5936 1980 c-9 -22 -16 -49 -16 -60 0 -27 -32 -45 -120 -65 -103 -25
-266 -82 -317 -111 -48 -28 -57 -54 -18 -54 14 0 25 4 25 9 0 15 71 47 186 84
134 43 212 62 219 55 3 -3 1 -45 -5 -94 -5 -49 -13 -165 -16 -259 l-7 -170
-64 -44 c-52 -36 -66 -42 -74 -30 -5 8 -9 19 -9 26 0 20 -30 43 -55 43 -35 0
-70 -53 -113 -171 -51 -142 -67 -143 -58 -3 4 60 16 165 27 233 14 81 17 127
11 133 -48 48 -102 -339 -82 -580 13 -148 26 -252 34 -260 14 -14 19 15 21
120 1 62 5 120 9 130 4 9 20 22 36 28 50 21 102 81 140 165 34 72 44 84 100
123 34 23 66 42 71 42 5 0 9 -84 9 -199 0 -196 8 -257 33 -248 9 3 13 85 14
353 3 340 23 656 43 678 19 19 331 59 364 46 33 -12 47 7 20 27 -22 17 -127
13 -269 -12 -103 -18 -127 -15 -101 14 22 24 18 84 -5 89 -11 2 -22 -10 -33
-38z m-248 -744 c2 -26 -2 -44 -15 -58 -29 -33 -93 -81 -99 -75 -10 9 17 79
48 130 37 58 62 60 66 3z m-50 -167 c-35 -63 -109 -122 -108 -86 1 24 27 59
70 93 56 45 66 43 38 -7z"/>
<path d="M1810 1654 c-10 -26 1 -64 20 -64 25 0 40 15 40 39 0 51 -44 69 -60
25z"/>
<path d="M3524 1656 c-10 -41 -1 -61 26 -61 22 0 25 4 25 40 0 34 -4 40 -22
43 -17 3 -24 -3 -29 -22z"/>
<path d="M6101 1666 c-7 -8 -11 -27 -9 -43 2 -22 8 -28 27 -28 32 0 45 23 32
58 -12 30 -32 35 -50 13z"/>
<path d="M6832 1453 c-38 -18 -67 -54 -108 -132 -35 -65 -124 -158 -170 -177
-18 -8 -52 -14 -74 -14 -35 0 -43 4 -60 33 -11 17 -20 48 -20 68 0 50 27 122
57 155 22 24 26 26 35 11 14 -26 28 -20 28 11 0 102 -116 46 -161 -78 -17 -47
-39 -78 -98 -140 -110 -114 -154 -119 -180 -20 -12 44 -13 69 -2 157 7 57 10
107 7 111 -4 3 -15 2 -24 -4 -42 -27 -56 -212 -22 -293 46 -105 117 -103 229
9 38 39 72 70 74 70 2 0 7 -13 10 -29 10 -51 56 -92 108 -98 56 -6 98 11 170
69 l56 45 9 -31 c7 -26 14 -31 39 -31 30 0 34 4 94 104 26 42 41 45 41 7 0
-27 32 -71 63 -88 38 -20 86 -11 137 27 50 37 80 74 80 100 0 24 -10 18 -67
-40 -102 -104 -169 -82 -182 60 -9 89 -31 83 -93 -27 -49 -87 -68 -106 -68
-68 0 51 71 179 112 201 17 9 28 8 55 -6 38 -21 50 -16 34 13 -8 15 -62 45
-75 42 -1 0 -16 -8 -34 -17z"/>
</g>
</svg>
