<?xml version="1.0"?>
<svg width="100" height="78" xmlns="http://www.w3.org/2000/svg" xmlns:svg="http://www.w3.org/2000/svg" version="1.1">

 <g className="layer">
  <title>Layer 1</title>
  <g id="surface1">
   <path d="m96.09,1.75c-1.16,0.98 -2.03,1.95 -1.96,2.12c0.08,0.2 -2.08,2.62 -4.8,5.36l-4.93,5.03l-0.95,-0.93l-0.96,-0.93l-0.69,0.67c-0.58,0.55 -0.66,0.81 -0.43,1.39c0.34,0.93 -0.32,2.51 -1.3,3.15c-0.55,0.38 -1.07,0.46 -1.85,0.32c-1.09,-0.18 -1.15,-0.12 -3.6,2.41c-3.09,3.18 -3.21,3.7 -1.19,5.85c1.41,1.52 2.54,2.1 3.44,1.75c0.31,-0.14 1.67,-1.34 3,-2.71c2.04,-2.12 2.39,-2.59 2.22,-3.2c-0.43,-1.83 1.07,-3.52 3.03,-3.37c0.86,0.08 1.3,-0.06 1.76,-0.56l0.64,-0.64l-0.79,-0.81c-0.43,-0.44 -0.77,-0.94 -0.77,-1.11c0,-0.52 9.52,-9.84 10.04,-9.86c0.32,0 1.3,-0.88 2.22,-1.98l1.67,-1.98l-0.86,-0.9l-0.87,-0.88l-2.07,1.81zm0,0" fill="#ffffff" fill-rule="nonzero" id="svg_1"/>
   <path d="m74.47,6.75c-0.2,0.21 -0.34,0.76 -0.38,1.23c-0.05,1.8 -0.34,2.23 -1.84,2.82c-0.81,0.29 -1.53,0.55 -1.62,0.55c-0.08,0 -0.66,-0.41 -1.27,-0.87c-0.6,-0.5 -1.3,-0.87 -1.56,-0.87c-0.6,0 -3.78,3.2 -3.78,3.81c0,0.26 0.41,0.96 0.87,1.57c0.49,0.61 0.87,1.19 0.87,1.28c0,0.09 -0.26,0.82 -0.55,1.63c-0.52,1.4 -0.61,1.46 -1.94,1.69c-2.25,0.41 -2.28,0.41 -2.36,3.17c-0.09,2.88 0.03,3.08 2.19,3.35c1.38,0.14 1.45,0.17 2.05,1.66c0.32,0.81 0.61,1.62 0.61,1.77c-0.03,0.17 -0.41,0.76 -0.87,1.31c-0.98,1.13 -1.07,1.63 -0.37,2.39c0.46,0.49 0.2,0.52 -7.07,0.52l-7.57,0l0,6.69l6.07,0l0,-1.86c0,-1.75 0.05,-1.92 1.15,-3.11l1.13,-1.28l0.02,3.23c0,3.73 0.27,3.41 -3.11,4.05c-4.33,0.84 -5.02,1.86 -5.2,7.91l-0.14,4.16l15.96,0l0,-6.69l-6.64,0l0,0.96c0,0.52 -0.17,1.22 -0.41,1.51c-0.34,0.5 -0.51,0.53 -1.15,0.21c-0.61,-0.27 -0.75,-0.56 -0.75,-1.34c0,-1.61 0.38,-1.84 3.84,-2.62c2.31,-0.56 3.26,-0.99 4.24,-2.07c0.69,-0.72 0.72,-0.96 0.81,-4.86l0.11,-4.08l0.96,0.94c1.03,1.01 1.07,1.01 2.79,-0.38l1.07,-0.84l1.59,0.64l1.58,0.66l0.21,1.55c0.08,0.87 0.35,1.68 0.54,1.86c0.24,0.18 1.42,0.29 2.95,0.23l2.54,-0.09l0.26,-1.8l0.26,-1.77l1.59,-0.62l1.62,-0.58l1.35,1.02c1.65,1.22 1.76,1.16 3.95,-1.16c1.5,-1.6 1.53,-1.63 1.07,-2.42c-0.23,-0.47 -0.69,-1.13 -1.01,-1.54c-0.58,-0.73 -0.58,-0.73 0.03,-2.36l0.61,-1.63l1.75,-0.26l1.79,-0.26l0,-2.74c0,-3.06 -0.02,-3.08 -2.19,-3.38c-1.27,-0.17 -1.32,-0.2 -1.96,-1.77l-0.66,-1.6l1.04,-1.34c0.83,-1.07 0.94,-1.43 0.72,-1.89c-0.29,-0.52 -0.38,-0.5 -1.65,0.67c-0.75,0.67 -1.47,1.34 -1.62,1.45c-0.17,0.15 -0.08,0.47 0.21,0.79c0.26,0.29 0.55,0.93 0.66,1.39c0.2,1.08 -0.63,1.93 -1.9,1.98c-0.67,0.04 -0.84,0.15 -0.69,0.47c0.08,0.23 0.22,1.16 0.31,2.07c0.72,7.48 -8.37,12.16 -13.76,7.07c-1.91,-1.8 -2.69,-3.52 -2.72,-6c0,-1.66 0.15,-2.24 0.99,-3.89c1.96,-3.88 5.82,-5.54 10.04,-4.31c0.55,0.14 0.63,0.08 0.63,-0.55c0,-0.76 1.27,-2.25 1.9,-2.25c0.18,0 0.7,0.3 1.13,0.61l0.78,0.64l1.45,-1.45c1.41,-1.43 1.58,-2.12 0.57,-2.12c-0.29,0 -0.95,0.37 -1.5,0.87c-0.55,0.46 -1.13,0.84 -1.3,0.87c-0.14,0 -0.95,-0.29 -1.76,-0.61c-1.47,-0.61 -1.5,-0.67 -1.7,-2.12c-0.09,-0.82 -0.32,-1.64 -0.49,-1.84c-0.41,-0.49 -4.88,-0.52 -5.37,-0.03zm0,0" fill="#ffffff" fill-rule="nonzero" id="svg_2"/>
   <path d="m8.53,20.32c-0.46,0.49 -0.49,2.47 -0.49,22.7l0,22.14l0.64,0.44c0.57,0.41 4.44,0.47 35.61,0.47l35,0l0.58,-0.76c0.58,-0.76 0.6,-1.08 0.6,-12.89l0,-12.11l-6.34,0l0,19.35l-60.03,0l0,-33.47l46.03,0l0,-6.4l-25.57,0c-24.41,0 -25.6,0.03 -26.03,0.53zm0,0" fill="#ffffff" fill-rule="nonzero" id="svg_3"/>
   <path d="m23.34,43.63l0,9.92l6.63,0l0,-16.5l1.01,-1.37c0.58,-0.73 1.16,-1.34 1.3,-1.34c0.17,0 0.29,3.7 0.29,9.61l0,9.6l6.64,0l0,-16.79l1.15,-1.28l1.12,-1.28l0.04,9.66l0,9.69l6.95,0l-0.09,-8.53c-0.08,-9.43 -0.11,-9.54 -2.04,-10.59c-0.84,-0.47 -2.05,-0.52 -11.95,-0.61l-11.05,-0.09l0,9.9zm0,0" fill="#ffffff" fill-rule="nonzero" id="svg_4"/>
   <path d="m0.39,70.05c0.95,4.02 4.45,6.99 9.01,7.66c2.74,0.41 67.15,0.38 69.63,-0.03c2.42,-0.38 4.53,-1.37 6.12,-2.85c1.3,-1.2 2.83,-3.87 2.83,-4.95l0,-0.61l-87.79,0l0.2,0.78zm50.31,3.5l0.08,1.54l-13.01,0l0,-3.2l6.43,0.06l6.41,0.09l0.09,1.51zm0,0" fill="#ffffff" fill-rule="nonzero" id="svg_5"/>
  </g>
 </g>
</svg>